<svg id="visual" viewBox="0 0 900 600" width="900" height="600" xmlns="http://www.w3.org/2000/svg" xmlns:xlink="http://www.w3.org/1999/xlink" version="1.1"><rect x="0" y="0" width="900" height="600" fill="#191E34"></rect><path d="M0 446L21.5 450.5C43 455 86 464 128.8 472.8C171.7 481.7 214.3 490.3 257.2 491.3C300 492.3 343 485.7 385.8 472.7C428.7 459.7 471.3 440.3 514.2 437.5C557 434.7 600 448.3 642.8 456.2C685.7 464 728.3 466 771.2 461.7C814 457.3 857 446.7 878.5 441.3L900 436L900 601L878.5 601C857 601 814 601 771.2 601C728.3 601 685.7 601 642.8 601C600 601 557 601 514.2 601C471.3 601 428.7 601 385.8 601C343 601 300 601 257.2 601C214.3 601 171.7 601 128.8 601C86 601 43 601 21.5 601L0 601Z" fill="#EFC139" stroke-linecap="round" stroke-linejoin="miter"></path></svg>